<mxfile host="app.diagrams.net" agent="Mozilla/5.0 (Windows NT 10.0; Win64; x64) AppleWebKit/537.36 (KHTML, like Gecko) Chrome/128.0.0.0 Safari/537.36" version="24.7.12">
  <diagram name="Page-1" id="wCkrFPbOXwGPSlF-70bw">
    <mxGraphModel dx="1533" dy="368" grid="1" gridSize="10" guides="1" tooltips="1" connect="1" arrows="1" fold="1" page="1" pageScale="1" pageWidth="850" pageHeight="1100" math="0" shadow="0">
      <root>
        <mxCell id="0" />
        <mxCell id="1" parent="0" />
        <mxCell id="baYw27YYxQFGViStPVgP-13" value="general new needs" style="rounded=0;whiteSpace=wrap;html=1;verticalAlign=top;" parent="1" vertex="1">
          <mxGeometry x="10" y="100" width="830" height="560" as="geometry" />
        </mxCell>
        <mxCell id="baYw27YYxQFGViStPVgP-1" value="input impedance" style="rounded=0;whiteSpace=wrap;html=1;verticalAlign=top;" parent="1" vertex="1">
          <mxGeometry x="50" y="160" width="220" height="180" as="geometry" />
        </mxCell>
        <mxCell id="baYw27YYxQFGViStPVgP-2" value="tone control" style="rounded=0;whiteSpace=wrap;html=1;verticalAlign=top;" parent="1" vertex="1">
          <mxGeometry x="320" y="160" width="230" height="180" as="geometry" />
        </mxCell>
        <mxCell id="baYw27YYxQFGViStPVgP-3" value="power isolation" style="rounded=0;whiteSpace=wrap;html=1;verticalAlign=top;" parent="1" vertex="1">
          <mxGeometry x="580" y="160" width="230" height="180" as="geometry" />
        </mxCell>
        <mxCell id="baYw27YYxQFGViStPVgP-4" value="water insulation" style="rounded=0;whiteSpace=wrap;html=1;verticalAlign=top;" parent="1" vertex="1">
          <mxGeometry x="70" y="420" width="210" height="170" as="geometry" />
        </mxCell>
        <mxCell id="baYw27YYxQFGViStPVgP-6" value="power polarity" style="rounded=0;whiteSpace=wrap;html=1;verticalAlign=top;" parent="1" vertex="1">
          <mxGeometry x="590" y="470" width="190" height="150" as="geometry" />
        </mxCell>
        <mxCell id="baYw27YYxQFGViStPVgP-7" value="variable&lt;div&gt;range?&lt;/div&gt;&lt;div&gt;&lt;br&gt;&lt;/div&gt;&lt;div&gt;from kremona to&amp;nbsp;&lt;/div&gt;&lt;div&gt;fishman pickup range&lt;/div&gt;" style="rounded=0;whiteSpace=wrap;html=1;" parent="1" vertex="1">
          <mxGeometry x="70" y="210" width="180" height="110" as="geometry" />
        </mxCell>
        <mxCell id="baYw27YYxQFGViStPVgP-8" value="passive/active?&lt;div&gt;&lt;br&gt;&lt;/div&gt;&lt;div&gt;low rollof?&lt;/div&gt;&lt;div&gt;high rollof?&lt;/div&gt;&lt;div&gt;further eq tuning?&lt;/div&gt;" style="rounded=0;whiteSpace=wrap;html=1;" parent="1" vertex="1">
          <mxGeometry x="340" y="200" width="180" height="110" as="geometry" />
        </mxCell>
        <mxCell id="baYw27YYxQFGViStPVgP-9" value="decoupling?&lt;div&gt;&lt;br&gt;&lt;/div&gt;&lt;div&gt;more/other caps?&lt;/div&gt;&lt;div&gt;&lt;br&gt;&lt;/div&gt;&lt;div&gt;better power supply?&lt;/div&gt;" style="rounded=0;whiteSpace=wrap;html=1;" parent="1" vertex="1">
          <mxGeometry x="605" y="210" width="180" height="110" as="geometry" />
        </mxCell>
        <mxCell id="baYw27YYxQFGViStPVgP-10" value="make it + sleeve&lt;div&gt;to work with guitar pedal power supplies&lt;/div&gt;" style="rounded=0;whiteSpace=wrap;html=1;" parent="1" vertex="1">
          <mxGeometry x="605" y="520" width="155" height="80" as="geometry" />
        </mxCell>
        <mxCell id="baYw27YYxQFGViStPVgP-11" value="RF interference isolation?" style="rounded=0;whiteSpace=wrap;html=1;verticalAlign=top;" parent="1" vertex="1">
          <mxGeometry x="315" y="410" width="230" height="150" as="geometry" />
        </mxCell>
        <mxCell id="baYw27YYxQFGViStPVgP-12" value="copper/tin lining?&lt;div&gt;&lt;br&gt;&lt;/div&gt;&lt;div&gt;other cleverness with decoupling?&lt;/div&gt;" style="rounded=0;whiteSpace=wrap;html=1;" parent="1" vertex="1">
          <mxGeometry x="340" y="450" width="180" height="90" as="geometry" />
        </mxCell>
        <mxCell id="baYw27YYxQFGViStPVgP-14" value="better case?" style="rounded=0;whiteSpace=wrap;html=1;direction=south;" parent="1" vertex="1">
          <mxGeometry x="107.5" y="475" width="135" height="85" as="geometry" />
        </mxCell>
        <mxCell id="baYw27YYxQFGViStPVgP-15" value="signal flow" style="rounded=0;whiteSpace=wrap;html=1;verticalAlign=top;" parent="1" vertex="1">
          <mxGeometry x="-140" y="750" width="980" height="370" as="geometry" />
        </mxCell>
        <mxCell id="baYw27YYxQFGViStPVgP-28" style="edgeStyle=orthogonalEdgeStyle;rounded=0;orthogonalLoop=1;jettySize=auto;html=1;exitX=1;exitY=0.5;exitDx=0;exitDy=0;entryX=0;entryY=0.5;entryDx=0;entryDy=0;" parent="1" source="baYw27YYxQFGViStPVgP-16" target="baYw27YYxQFGViStPVgP-17" edge="1">
          <mxGeometry relative="1" as="geometry" />
        </mxCell>
        <mxCell id="baYw27YYxQFGViStPVgP-16" value="audio in&lt;div&gt;&lt;span style=&quot;background-color: initial;&quot;&gt;&lt;br&gt;&lt;/span&gt;&lt;/div&gt;&lt;div&gt;&lt;span style=&quot;background-color: initial;&quot;&gt;mono jack&lt;/span&gt;&lt;br&gt;&lt;/div&gt;" style="rounded=0;whiteSpace=wrap;html=1;verticalAlign=top;" parent="1" vertex="1">
          <mxGeometry x="-97.5" y="900" width="107.5" height="60" as="geometry" />
        </mxCell>
        <mxCell id="baYw27YYxQFGViStPVgP-29" style="edgeStyle=orthogonalEdgeStyle;rounded=0;orthogonalLoop=1;jettySize=auto;html=1;" parent="1" source="baYw27YYxQFGViStPVgP-17" target="baYw27YYxQFGViStPVgP-18" edge="1">
          <mxGeometry relative="1" as="geometry" />
        </mxCell>
        <mxCell id="baYw27YYxQFGViStPVgP-17" value="decoupling cap" style="rounded=0;whiteSpace=wrap;html=1;verticalAlign=middle;" parent="1" vertex="1">
          <mxGeometry x="86.25" y="910" width="107.5" height="40" as="geometry" />
        </mxCell>
        <mxCell id="baYw27YYxQFGViStPVgP-25" style="edgeStyle=orthogonalEdgeStyle;rounded=0;orthogonalLoop=1;jettySize=auto;html=1;" parent="1" source="baYw27YYxQFGViStPVgP-18" target="baYw27YYxQFGViStPVgP-19" edge="1">
          <mxGeometry relative="1" as="geometry" />
        </mxCell>
        <mxCell id="baYw27YYxQFGViStPVgP-18" value="amplifier" style="rounded=0;whiteSpace=wrap;html=1;verticalAlign=middle;" parent="1" vertex="1">
          <mxGeometry x="280" y="910" width="107.5" height="40" as="geometry" />
        </mxCell>
        <mxCell id="baYw27YYxQFGViStPVgP-26" style="edgeStyle=orthogonalEdgeStyle;rounded=0;orthogonalLoop=1;jettySize=auto;html=1;exitX=1;exitY=0.5;exitDx=0;exitDy=0;entryX=0;entryY=0.5;entryDx=0;entryDy=0;" parent="1" source="baYw27YYxQFGViStPVgP-19" target="baYw27YYxQFGViStPVgP-20" edge="1">
          <mxGeometry relative="1" as="geometry" />
        </mxCell>
        <mxCell id="baYw27YYxQFGViStPVgP-19" value="buffer amp" style="rounded=0;whiteSpace=wrap;html=1;verticalAlign=middle;" parent="1" vertex="1">
          <mxGeometry x="412.5" y="910" width="107.5" height="40" as="geometry" />
        </mxCell>
        <mxCell id="baYw27YYxQFGViStPVgP-27" style="edgeStyle=orthogonalEdgeStyle;rounded=0;orthogonalLoop=1;jettySize=auto;html=1;exitX=1;exitY=0.5;exitDx=0;exitDy=0;entryX=0;entryY=0.5;entryDx=0;entryDy=0;" parent="1" source="baYw27YYxQFGViStPVgP-20" target="baYw27YYxQFGViStPVgP-21" edge="1">
          <mxGeometry relative="1" as="geometry" />
        </mxCell>
        <mxCell id="baYw27YYxQFGViStPVgP-20" value="output volume trim" style="rounded=0;whiteSpace=wrap;html=1;verticalAlign=middle;" parent="1" vertex="1">
          <mxGeometry x="550" y="910" width="120" height="40" as="geometry" />
        </mxCell>
        <mxCell id="baYw27YYxQFGViStPVgP-21" value="audio out&lt;div&gt;&lt;br&gt;&lt;/div&gt;&lt;div&gt;mono jack&lt;/div&gt;" style="rounded=0;whiteSpace=wrap;html=1;verticalAlign=middle;" parent="1" vertex="1">
          <mxGeometry x="700" y="897.5" width="100" height="65" as="geometry" />
        </mxCell>
        <mxCell id="baYw27YYxQFGViStPVgP-22" value="input impedance adjustment?&lt;div&gt;(what&#39;s the range?)&lt;/div&gt;" style="rounded=0;whiteSpace=wrap;html=1;verticalAlign=middle;" parent="1" vertex="1">
          <mxGeometry x="80" y="840" width="120" height="57.5" as="geometry" />
        </mxCell>
        <mxCell id="baYw27YYxQFGViStPVgP-23" value="(voltage divider for powering op amp, creating a virtual ground)" style="rounded=0;whiteSpace=wrap;html=1;verticalAlign=middle;" parent="1" vertex="1">
          <mxGeometry x="121.25" y="1000" width="118.75" height="80" as="geometry" />
        </mxCell>
      </root>
    </mxGraphModel>
  </diagram>
</mxfile>
